<svg width="25" height="24" viewBox="0 0 25 24" fill="none" xmlns="http://www.w3.org/2000/svg">
  <path d="m24.507 9.5-.034-.09L21.082.562a.896.896 0 0 0-1.694.091l-2.29 7.01H7.825L5.535.653a.898.898 0 0 0-1.694-.09L.451 9.411.416 9.5a6.297 6.297 0 0 0 2.09 7.278l.012.01.03.022 5.16 3.867 2.56 1.935 1.554 1.176a1.051 1.051 0 0 0 1.268 0l1.555-1.176 2.56-1.935 5.197-3.89.014-.01A6.297 6.297 0 0 0 24.507 9.5Z" fill="#E24329"/>
  <path d="m24.507 9.5-.034-.09a11.44 11.44 0 0 0-4.56 2.051l-7.447 5.632 4.742 3.584 5.197-3.89.014-.01A6.297 6.297 0 0 0 24.507 9.5Z" fill="#FC6D26"/>
  <path d="m7.707 20.677 2.56 1.935 1.555 1.176a1.051 1.051 0 0 0 1.268 0l1.555-1.176 2.56-1.935-4.743-3.584-4.755 3.584Z" fill="#FCA326"/>
  <path d="M5.01 11.461a11.43 11.43 0 0 0-4.56-2.05L.416 9.5a6.297 6.297 0 0 0 2.09 7.278l.012.01.03.022 5.16 3.867 4.745-3.584-7.444-5.632Z" fill="#FC6D26"/>
  <!-- Large Green Success Pipeline -->
  <circle cx="6" cy="16" r="4" fill="#108548" stroke="white" stroke-width="1.5"/>
  <path d="M4.6 16l.9.9 1.8-1.8" stroke="white" stroke-width="1.1" stroke-linecap="round" stroke-linejoin="round"/>
  <path d="M10 16h2.5" stroke="white" stroke-width="2.5" stroke-linecap="round"/>
  <circle cx="14.5" cy="16" r="2.5" fill="#108548" stroke="white" stroke-width="1.5"/>
  <!-- Large Shortcut Arrow with High Contrast -->
  <path d="M15.5 21l7-7m0 0h-5m5 0v5" stroke="white" stroke-width="3" stroke-linecap="round" stroke-linejoin="round"/>
  <path d="M15.5 21l7-7m0 0h-5m5 0v5" stroke="#111" stroke-width="1.2" stroke-linecap="round" stroke-linejoin="round"/>
</svg>
