<svg width="12" height="12" viewBox="0 0 12 12" fill="none" xmlns="http://www.w3.org/2000/svg">
<path fill-rule="evenodd" clip-rule="evenodd" d="M6 12C9.31371 12 12 9.31371 12 6C12 2.68629 9.31371 0 6 0C2.68629 0 0 2.68629 0 6C0 9.31371 2.68629 12 6 12ZM8.57617 4.98014C8.84134 4.66193 8.79835 4.18901 8.48014 3.92383C8.16193 3.65866 7.68901 3.70165 7.42383 4.01986L5.4496 6.38894L4.53033 5.46967C4.23744 5.17678 3.76256 5.17678 3.46967 5.46967C3.17678 5.76256 3.17678 6.23744 3.46967 6.53033L4.96967 8.03033C5.11867 8.17933 5.32348 8.25878 5.53399 8.24923C5.74449 8.23968 5.94127 8.14202 6.07617 7.98014L8.57617 4.98014Z" fill="#108548"/>
</svg>
