<svg width="12" height="12" viewBox="0 0 12 12" fill="none" xmlns="http://www.w3.org/2000/svg">
<path fill-rule="evenodd" clip-rule="evenodd" d="M6 12C9.31371 12 12 9.31371 12 6C12 2.68629 9.31371 0 6 0C2.68629 0 0 2.68629 0 6C0 9.31371 2.68629 12 6 12ZM3.64462 3.6898C3.43112 4.0118 3.32437 4.32968 3.32437 4.64342C3.32437 4.79533 3.39175 4.93651 3.5265 5.06696C3.66125 5.19741 3.82662 5.26263 4.02262 5.26263C4.35512 5.26263 4.58086 5.07604 4.69986 4.70286C4.82586 4.34619 4.97986 4.0762 5.16186 3.89291C5.34386 3.70962 5.62736 3.61798 6.01236 3.61798C6.34136 3.61798 6.61 3.7088 6.81825 3.89044C7.0265 4.07208 7.13061 4.29499 7.13061 4.55919C7.13061 4.69459 7.0965 4.82009 7.02825 4.93568C6.96 5.05127 6.876 5.15613 6.77625 5.25025C6.6765 5.34437 6.51461 5.48389 6.29061 5.66883C6.03511 5.88019 5.83213 6.06266 5.68163 6.21622C5.53113 6.36979 5.41037 6.54813 5.31937 6.75124C5.07764 7.68478 6.3321 7.76008 6.62137 7.09305C6.65637 7.02865 6.70974 6.95764 6.78149 6.88003C6.85324 6.80242 6.94862 6.71244 7.06762 6.61006C7.49812 6.24678 7.7965 5.98836 7.96275 5.83479C8.129 5.68123 8.27248 5.49876 8.39323 5.2874C8.51398 5.07604 8.57437 4.83002 8.57437 4.5493C8.57437 4.19263 8.4685 3.86237 8.25675 3.55854C8.045 3.25471 7.74488 3.01445 7.35638 2.83777C6.96788 2.66108 6.51986 2.57275 6.01236 2.57275C5.46636 2.57275 4.98863 2.67841 4.57912 2.88977C4.16962 3.10113 3.85812 3.36781 3.64462 3.6898ZM5.25 9C5.25 9.41421 5.58579 9.75 6 9.75C6.41421 9.75 6.75 9.41421 6.75 9C6.75 8.58579 6.41421 8.25 6 8.25C5.58579 8.25 5.25 8.58579 5.25 9Z" fill="#868686"/>
</svg>
