<svg width="12" height="12" viewBox="0 0 12 12" fill="none" xmlns="http://www.w3.org/2000/svg">
<path fill-rule="evenodd" clip-rule="evenodd" d="M12 6C12 9.31371 9.31371 12 6 12C2.68629 12 0 9.31371 0 6C0 2.68629 2.68629 0 6 0C9.31371 0 12 2.68629 12 6ZM6.75 3.75C6.75 4.16421 6.41421 4.5 6 4.5C5.58579 4.5 5.25 4.16421 5.25 3.75C5.25 3.33579 5.58579 3 6 3C6.41421 3 6.75 3.33579 6.75 3.75ZM6 5.25C5.58579 5.25 5.25 5.58579 5.25 6V8.25C5.25 8.66421 5.58579 9 6 9C6.41421 9 6.75 8.66421 6.75 8.25V6C6.75 5.58579 6.41421 5.25 6 5.25Z" fill="#428FDC"/>
</svg>
