<svg width="32" height="32" viewBox="0 0 32 32" fill="none" xmlns="http://www.w3.org/2000/svg">
<path d="M32 16C32 24.8366 24.8366 32 16 32C7.1634 32 0 24.8366 0 16C0 7.16344 7.1634 0 16 0C24.8366 0 32 7.16344 32 16Z" fill="url(#paint0_linear_28264_525)"/>
<path d="M17.8185 22.2163C17.7037 22.2163 17.6061 22.1759 17.5258 22.0953C17.4455 22.0146 17.4053 21.9166 17.4053 21.8013V20.9195C17.4053 20.6083 17.5488 20.3374 17.8357 20.1068L20.556 17.3922C21.7383 16.4585 22.5591 15.7323 23.0182 15.2135C23.4888 14.6833 23.7241 14.1646 23.7241 13.6574C23.7241 13.1156 23.5748 12.6891 23.2764 12.3779C22.9895 12.0666 22.5533 11.911 21.9679 11.911C21.394 11.911 20.9406 12.0839 20.6078 12.4297C20.2748 12.764 20.0682 13.202 19.9879 13.7438C19.9534 13.8822 19.8904 13.9859 19.7985 14.0551C19.7067 14.1127 19.6034 14.1415 19.4886 14.1415H17.9562C17.853 14.1415 17.7669 14.1069 17.698 14.0378C17.6291 13.9686 17.5947 13.8879 17.5947 13.7957C17.6176 13.1156 17.8013 12.4816 18.1456 11.8937C18.49 11.2943 18.9893 10.8159 19.6435 10.4586C20.2978 10.0897 21.0669 9.90527 21.9507 9.90527C22.869 9.90527 23.6437 10.0667 24.275 10.3894C24.9178 10.7006 25.3999 11.1329 25.7213 11.6862C26.0427 12.2395 26.2034 12.8678 26.2034 13.5709C26.2034 14.3432 25.9853 15.0406 25.5491 15.6631C25.1244 16.2856 24.4702 16.9541 23.5863 17.6689L21.1415 20.1587H26.0484C26.1747 20.1587 26.2722 20.1991 26.3411 20.2797C26.4215 20.3489 26.4617 20.4469 26.4617 20.5737V21.8013C26.4617 21.9166 26.4215 22.0146 26.3411 22.0953C26.2722 22.1759 26.1747 22.2163 26.0484 22.2163H17.8185Z" fill="white"/>
<path d="M5.92752 22.216C5.81392 22.216 5.71736 22.1759 5.63783 22.0957C5.55831 22.0155 5.51855 21.9182 5.51855 21.8036V10.6176C5.51855 10.4916 5.55263 10.3885 5.62079 10.3083C5.70032 10.2281 5.80256 10.188 5.92752 10.188H7.47816C7.60312 10.188 7.69968 10.2281 7.76784 10.3083C7.84736 10.3885 7.88712 10.4916 7.88712 10.6176V15.0507H12.914V10.6176C12.914 10.4916 12.948 10.3885 13.0162 10.3083C13.0957 10.2281 13.198 10.188 13.3229 10.188H14.8565C14.9815 10.188 15.0837 10.2281 15.1632 10.3083C15.2428 10.3885 15.2825 10.4916 15.2825 10.6176V21.8036C15.2825 21.9296 15.2428 22.0327 15.1632 22.1129C15.0837 22.1816 14.9815 22.216 14.8565 22.216H13.3229C13.2093 22.216 13.1128 22.1759 13.0332 22.0957C12.9537 22.0155 12.914 21.9182 12.914 21.8036V17.1986H7.88712V21.8036C7.88712 21.9182 7.84736 22.0155 7.76784 22.0957C7.69968 22.1759 7.60312 22.216 7.47816 22.216H5.92752Z" fill="white"/>
<defs>
<linearGradient id="paint0_linear_28264_525" x1="36.9524" y1="-5.33333" x2="3.31515e-06" y2="32" gradientUnits="userSpaceOnUse">
<stop offset="0.143564" stop-color="#FFCB05"/>
<stop offset="0.487264" stop-color="#92CD06"/>
<stop offset="0.8533" stop-color="#238441"/>
</linearGradient>
</defs>
</svg>
