<?xml version="1.0" encoding="UTF-8"?>
<svg version="1.1" xmlns="http://www.w3.org/2000/svg" width="1014" height="1024">
<path d="M0 0 C1.89818481 0.01305176 1.89818481 0.01305176 3.8347168 0.02636719 C28.85077136 0.41198329 53.03584875 5.42392671 75.75 16 C102.37787796 28.04594479 126.25397936 22.19471523 153.1809082 14.19335938 C168.85804147 9.54761979 187.42798713 5.356628 203 12.375 C215.33185399 19.64107165 221.24649137 29.52972093 225.0859375 43.2578125 C229.33652608 67.05384259 225.3068133 92.68930443 222 116.375 C221.81808105 117.71385254 221.63616211 119.05270508 221.44873047 120.43212891 C209.00340098 210.68579184 178.21174585 302.08356433 126 377.375 C125.03191406 378.77363281 124.06382812 380.17226563 123.06640625 381.61328125 C114.8968531 393.30042544 106.5579211 404.77817444 97 415.375 C95.19989443 411.77478885 97.25334112 407.75307232 98.1875 404 C100.34014762 394.99163769 101.95413355 385.98258486 103.25 376.8125 C103.49399536 375.10344482 103.49399536 375.10344482 103.74291992 373.35986328 C109.29372356 332.78746409 106.85660248 291.24721434 98 251.375 C97.86464844 253.17453125 97.72929688 254.9740625 97.58984375 256.828125 C93.67312885 305.00563191 83.47231984 351.08014163 70 397.375 C69.34 397.375 68.68 397.375 68 397.375 C67.96261719 395.73015625 67.92523437 394.0853125 67.88671875 392.390625 C66.84910311 354.4190377 58.67946794 316.08797327 35 285.375 C35.54527344 287.83646484 35.54527344 287.83646484 36.1015625 290.34765625 C45.38603994 333.17846589 50.7490763 376.63007491 53 420.375 C48.33379533 417.26419689 46.55653187 412.22779926 44 407.375 C42.02888014 403.84926879 40.05197263 400.32780892 38.0625 396.8125 C37.50602783 395.82854248 36.94955566 394.84458496 36.3762207 393.83081055 C31.57031657 385.34960708 26.70533318 376.90310299 21.82324219 368.46557617 C18.40747141 362.5593227 15.00841209 356.64416431 11.6328125 350.71484375 C10.91134033 349.44793701 10.18986816 348.18103027 9.4465332 346.87573242 C8.05519001 344.43033653 6.66561785 341.98393187 5.27807617 339.53637695 C4.33025269 337.87094849 4.33025269 337.87094849 3.36328125 336.171875 C2.53244019 334.70766113 2.53244019 334.70766113 1.68481445 333.21386719 C-0.10815943 330.19275426 -2.02773727 327.28160573 -4 324.375 C-3.764021 325.35218994 -3.52804199 326.32937988 -3.28491211 327.33618164 C7.18319931 370.96134477 14.85339222 414.586051 18 459.375 C13.79987695 457.97495898 12.33041638 454.97581309 9.68359375 451.5859375 C0.1033542 440.12311813 -10.95245651 430.16229072 -23 421.375 C-24.07894531 420.58609375 -25.15789062 419.7971875 -26.26953125 418.984375 C-35.45436988 412.45392141 -45.1206728 405.64043908 -56 402.375 C-55.23558594 403.49132812 -54.47117187 404.60765625 -53.68359375 405.7578125 C-47.57171759 414.68659428 -41.46734698 423.62038065 -35.375 432.5625 C-29.2739529 441.51657738 -23.14813923 450.45316802 -17 459.375 C-17.33 460.035 -17.66 460.695 -18 461.375 C-19.05832031 460.67117188 -20.11664063 459.96734375 -21.20703125 459.2421875 C-34.98380513 450.29137428 -49.2802302 442.65709936 -64 435.375 C-65.64226562 434.56160156 -67.28453125 433.74820312 -68.9765625 432.91015625 C-112.87742089 412.23113181 -160.68897159 401.69882162 -209 399.375 C-208.19183838 399.60050537 -207.38367676 399.82601074 -206.55102539 400.05834961 C-170.20122575 410.25787982 -135.59199489 423.39931221 -101.69677734 440.05908203 C-95.83887583 442.91750039 -89.91737889 445.64242178 -84 448.375 C-84 449.035 -84 449.695 -84 450.375 C-90.19314702 449.20281529 -96.32093576 447.84583568 -102.453125 446.38671875 C-176.17486529 428.30717549 -176.17486529 428.30717549 -249 442.375 C-247.40853149 442.44231323 -247.40853149 442.44231323 -245.78491211 442.51098633 C-194.40590184 444.74558229 -118.48266151 450.99739287 -80 490.375 C-72.30094572 499.94679721 -68.92737799 508.76639707 -69.0625 521.0625 C-72.6809394 541.56698993 -89.02979219 555.27606816 -104 568.375 C-106.28084987 570.62372522 -108.52800844 572.90339277 -110.77734375 575.18359375 C-114.04524899 578.40555305 -117.54367087 581.35756981 -121 584.375 C-122.32 585.695 -123.64 587.015 -125 588.375 C-128.86080815 592.23580815 -132.89250456 595.78094149 -137 599.375 C-138.32 600.695 -139.64 602.015 -141 603.375 C-144.86049561 607.23549561 -148.88884704 610.78589821 -153 614.375 C-154.155 615.53 -155.31 616.685 -156.5 617.875 C-160 621.375 -160 621.375 -163.6875 624.5625 C-167.27415651 627.73331228 -170.63511848 630.97625804 -174 634.375 C-178.50479577 638.9250701 -183.16012712 643.1804435 -188 647.375 C-190.70811119 650.00373552 -193.35468461 652.68244684 -196 655.375 C-156.44013596 642.75202151 -115.29461982 617.66961982 -86 588.375 C-85.01 588.705 -84.02 589.035 -83 589.375 C-83.63164062 590.02082031 -84.26328125 590.66664063 -84.9140625 591.33203125 C-93.50695748 600.38304887 -100.74285518 610.25897994 -108 620.375 C-108.89976562 621.60734375 -109.79953125 622.8396875 -110.7265625 624.109375 C-140.97877107 665.7901957 -166.07493522 713.26375943 -175 764.375 C-174.12859375 762.79074219 -173.2571875 761.20648437 -172.359375 759.57421875 C-148.12383844 715.74603436 -118.24902333 674.15987714 -80 641.375 C-78.55625 640.075625 -77.1125 638.77625 -75.625 637.4375 C-70.89809693 633.22581301 -65.97105765 629.29258848 -61 625.375 C-60.11828125 624.63765625 -59.2365625 623.9003125 -58.328125 623.140625 C-56 621.375 -56 621.375 -54 621.375 C-55.65853247 625.52133119 -57.46891191 629.34605133 -59.5 633.3125 C-88.08118358 690.47486716 -101.60135885 753.42988733 -96 817.375 C-93.11899513 810.10866811 -90.95361195 802.67827487 -88.75 795.1875 C-82.0268495 772.6582403 -74.21880598 750.99513842 -65 729.375 C-64.35546875 727.8384375 -63.7109375 726.301875 -63.046875 724.71875 C-52.75674538 700.80115144 -40.7449867 677.48479288 -27 655.375 C-26.09765625 653.86164062 -25.1953125 652.34828125 -24.265625 650.7890625 C-23.51796875 649.66242187 -22.7703125 648.53578125 -22 647.375 C-21.34 647.375 -20.68 647.375 -20 647.375 C-20.30292969 648.8084375 -20.60585938 650.241875 -20.91796875 651.71875 C-29.55040566 693.26713491 -34.41457168 734.90443496 -34 777.375 C-33.72027344 776.36824219 -33.44054687 775.36148438 -33.15234375 774.32421875 C-30.46627497 764.90138584 -27.39056168 755.72513453 -23.93359375 746.55859375 C-22.57396981 742.9137029 -21.25232453 739.27009143 -19.97265625 735.59765625 C-12.31069404 713.67793474 -3.0030044 692.51891212 6.6953125 671.43359375 C8.90393623 666.58585184 11.0172098 661.70470565 13.125 656.8125 C20.83465019 639.47737473 30.80707003 622.88597075 48.9375 615.3125 C56.52145714 613.90806349 62.22137324 614.80876517 68.95703125 618.60546875 C76.13100766 623.56552215 82.03408398 630.05682306 88.125 636.25 C89.36121094 637.49136719 90.59742188 638.73273437 91.87109375 640.01171875 C97.7878181 645.97928499 103.51450066 652.01210609 109 658.375 C110.95990647 660.35260885 112.93810117 662.31232757 114.9375 664.25 C120.08722635 669.34142756 124.60324925 674.62540286 129 680.375 C126.46023872 672.46398682 123.50818748 664.74117159 120.5 657 C119.70541382 654.95075317 119.70541382 654.95075317 118.89477539 652.86010742 C115.05947998 643.00680496 111.11052139 633.20439047 107.09814453 623.42211914 C103.62821994 614.95149502 100.23057576 606.45406436 96.875 597.9375 C96.40118896 596.73971924 95.92737793 595.54193848 95.43920898 594.30786133 C93.75630603 590.02244141 92.11798214 585.84692858 91 581.375 C95.58925317 584.1285519 99.17800826 586.98494299 103.1875 590.5 C105.17910156 592.24410156 105.17910156 592.24410156 107.2109375 594.0234375 C111.83359855 598.11234799 116.4292836 602.22821177 121 606.375 C122.62463078 607.83374465 124.24963891 609.29206913 125.875 610.75 C126.66793457 611.46599365 127.46086914 612.1819873 128.27783203 612.91967773 C129.97843309 614.45357413 131.68309571 615.9829935 133.39379883 617.50561523 C142.93400588 626.10022855 151.97140085 635.19510782 161.0378418 644.2824707 C163.8203186 647.07033374 166.6081351 649.85277742 169.39648438 652.63476562 C171.18782092 654.42676259 172.97884744 656.21906953 174.76953125 658.01171875 C175.59258255 658.83274582 176.41563385 659.65377289 177.2636261 660.49967957 C182.04422276 665.29955643 186.58006773 670.23548772 191 675.375 C193.15719269 677.71709492 195.32362664 680.05071777 197.5 682.375 C208.46706961 694.15398251 218.82557371 706.43872185 228.984375 718.91796875 C231.60613087 722.11386884 234.29281357 725.25132335 237 728.375 C232.32480454 717.23750364 227.12568331 706.4297135 221.671875 695.66015625 C219.51503909 691.39378347 217.4075495 687.1092055 215.3125 682.8125 C204.92981664 662.08959825 193.30518575 642.00775899 181 622.375 C180.40944824 621.43011719 179.81889648 620.48523438 179.21044922 619.51171875 C172.41664203 608.66511111 165.46981809 597.9666642 158.109375 587.4921875 C156 584.375 156 584.375 154 580.375 C162.48072078 582.71590574 170.46410742 585.88915714 178.5625 589.3125 C179.93003418 589.8895166 181.29756836 590.4665332 182.70654297 591.06103516 C200.62486225 598.69086528 218.00046853 607.27919617 235.3125 616.1875 C236.49859863 616.79770996 237.68469727 617.40791992 238.90673828 618.03662109 C246.40920656 621.93358053 253.72813058 626.06267652 261 630.375 C259.80503906 629.20324219 258.61007812 628.03148437 257.37890625 626.82421875 C242.33061653 611.98001118 242.33061653 611.98001118 236.00390625 603.8828125 C233.76141309 601.07641755 231.37434824 598.45150005 228.9375 595.8125 C224.3745529 590.84239762 220.15163706 585.69000789 216 580.375 C215.11054687 579.25738281 214.22109375 578.13976562 213.3046875 576.98828125 C210.51196215 573.46883854 207.74690098 569.93029826 205 566.375 C204.34773437 565.53195312 203.69546875 564.68890625 203.0234375 563.8203125 C193.53467137 550.95198583 185.7292208 535.68333312 187 519.375 C188.62513241 513.14532576 190.54334021 509.84741987 196 506.375 C208.54548385 501.6913527 221.60679531 502.19290996 234.8125 502.1875 C237.10864258 502.16913086 237.10864258 502.16913086 239.45117188 502.15039062 C249.57585624 502.13775057 259.48398036 502.81356203 269.5559082 503.80249023 C283.56568157 505.11051813 297.64003847 505.73490351 311.6875 506.5 C313.3153241 506.58971069 314.94314819 506.67942139 316.62030029 506.77185059 C342.10976793 508.15921588 367.47263714 508.9593559 393 508.375 C384.45425913 506.21967028 375.90724154 504.0694957 367.35913086 501.92358398 C364.46654373 501.19672384 361.57427747 500.46858529 358.68237305 499.73901367 C328.62530156 492.15803951 298.49815851 485.31828826 268.0625 479.4375 C265.50577699 478.93987622 262.9491361 478.44183033 260.39257812 477.94335938 C254.2626462 476.74908045 248.1316605 475.56037064 242 474.375 C242 473.715 242 473.055 242 472.375 C243.09836182 472.26019287 244.19672363 472.14538574 245.32836914 472.02709961 C303.76968728 465.8219345 360.27415713 454.36489852 415 432.375 C355.73181804 434.76317719 296.1263127 441.4040846 238 453.375 C234.66675279 454.04209716 231.33345299 454.7089319 228 455.375 C227.67 454.715 227.34 454.055 227 453.375 C228.36769531 452.9625 229.73539063 452.55 231.14453125 452.125 C262.71654485 442.37705921 289.85624372 427.55156512 316 407.375 C317.30904297 406.37533203 317.30904297 406.37533203 318.64453125 405.35546875 C329.07686317 397.23074942 341.67588524 386.67145904 345 373.375 C343.99066406 374.07882812 342.98132813 374.78265625 341.94140625 375.5078125 C324.37661683 387.51015745 305.89423412 398.68525452 286 406.375 C284.16953125 407.09042969 282.3390625 407.80585938 280.453125 408.54296875 C252.51324737 419.17819137 221.13649556 428.01384266 191 426.375 C191 424.375 191 424.375 193.21875 422.14453125 C194.1365625 421.23058594 195.054375 420.31664062 196 419.375 C197.54045508 417.30026737 199.03784585 415.19313901 200.5 413.0625 C205.30447028 406.2305861 210.46528777 399.77263668 215.76953125 393.32421875 C218.77472769 389.65039336 221.71054772 385.93346506 224.625 382.1875 C229.07756812 376.49235473 233.68620527 370.95583491 238.3828125 365.4609375 C240.7997632 362.6111001 243.15666528 359.72290504 245.5 356.8125 C249.55520829 351.82706472 253.8471438 347.09615944 258.2265625 342.39453125 C260.25263039 340.1886855 262.23388349 337.9414385 264.18774414 335.67138672 C267.90854 331.47807481 271.76951474 327.53979578 275.76953125 323.61328125 C277.25094835 322.14938935 278.73205842 320.68518669 280.21289062 319.22070312 C282.50649291 316.95788089 284.8023175 314.69747636 287.10375977 312.44262695 C298.52138683 301.24327265 308.73091521 289.88190812 317.171875 276.234375 C320.04684194 271.73763184 323.20128904 267.44770198 326.32421875 263.12109375 C329.12520015 259.19971979 331.84840903 255.23193206 334.5625 251.25 C338.49517523 245.50564292 342.54988968 239.89422739 346.765625 234.35546875 C349.18018736 231.13464518 351.49695815 227.85514152 353.8125 224.5625 C358.39865926 218.10473058 363.27528951 211.92478547 368.2578125 205.76953125 C370.39459672 203.12442372 372.48750576 200.44385218 374.5625 197.75 C384.17512174 185.51575415 394.56094217 173.90495616 405 162.375 C405.82242188 161.45847656 406.64484375 160.54195312 407.4921875 159.59765625 C418.24636947 147.71061535 429.29371656 136.18687217 442 126.375 C443.00289062 125.56675781 444.00578125 124.75851563 445.0390625 123.92578125 C462.93598804 109.70839393 483.94592626 96.30680803 507.67578125 98.8046875 C520.25564032 100.96292419 529.28049077 107.28025716 537 117.375 C543.1348938 130.14221142 543.21360872 142.44552124 543.3125 156.3125 C543.58037467 173.15772531 544.69560181 189.80110502 546.3125 206.5625 C546.41341949 207.64062958 546.51433899 208.71875916 546.61831665 209.82955933 C547.8550567 222.89627945 549.6049001 235.69269233 552.1340332 248.58032227 C555.75380059 268.62222013 552.34995418 287.75219003 548.4375 307.5 C547.80896873 310.71050189 547.18258844 313.9214258 546.55859375 317.1328125 C546.28329834 318.5264502 546.00800293 319.92008789 545.72436523 321.35595703 C544.38189771 328.80445733 543.88545398 335.92118546 543.93261719 343.49462891 C543.94176147 345.44008606 543.95090576 347.38554321 543.96032715 349.38995361 C543.97341919 351.36501892 543.98651123 353.34008423 544 355.375 C544.01009892 358.98746567 544.0195487 362.59993321 544.02832031 366.21240234 C544.06327622 375.17433423 544.11722322 384.13603986 544.18390274 393.09778404 C544.22339246 398.4600592 544.25561703 403.82216737 544.27099609 409.18457031 C544.09232681 442.01625662 544.09232681 442.01625662 549 474.375 C549.3501416 475.86870117 549.7002832 477.36240234 550.06103516 478.90136719 C551.0326884 482.81250998 552.08454139 486.6866248 553.1875 490.5625 C553.89042073 493.09735208 554.59229012 495.632496 555.29296875 498.16796875 C555.5974292 499.2458667 555.90188965 500.32376465 556.21557617 501.43432617 C559.71777281 514.56347603 560.67002181 533.17242705 554.6015625 545.69921875 C554.07304688 546.58222656 553.54453125 547.46523438 553 548.375 C552.43023438 549.33019531 551.86046875 550.28539062 551.2734375 551.26953125 C540.95206937 566.79405821 524.10521649 575.73781385 506.19140625 579.6953125 C471.82879786 585.26762737 438.46293418 576.2282262 406.375 564.625 C382.64637619 556.60710885 356.93377556 557.18815792 332.21191406 557.18969727 C328.21669298 557.18748153 324.22173602 557.16918053 320.2265625 557.15039062 C317.67708427 557.14746118 315.12760474 557.14547339 312.578125 557.14453125 C311.38858215 557.13734573 310.19903931 557.13016022 308.97344971 557.12275696 C303.66882889 557.13751375 299.98277837 557.38188865 295 559.375 C293.72539939 562.09444174 293.72539939 562.09444174 294 565.375 C303.72658991 587.2598273 328.33577441 595.95144344 349 603.9375 C385.49957569 617.68409344 423.14609934 623.5375537 461.85546875 627.109375 C511.48101298 631.72958472 511.48101298 631.72958472 527.953125 649.8046875 C550.78949853 678.48089701 549.12795833 727.14332852 549.25 762.0625 C549.2809375 764.24649414 549.2809375 764.24649414 549.3125 766.47460938 C549.38310975 786.6954754 545.43830448 805.93826215 540.87194824 825.51568604 C531.6564752 865.18419075 523.52442925 901.9096143 540.875 940.55078125 C548.91894174 958.56585911 550.74248477 975.42484872 544 994.375 C539.14362575 1003.31514351 532.49258391 1010.54512562 522.5546875 1013.7109375 C501.49172624 1017.64577642 482.14369203 1011.58957777 463 1003.375 C429.54798406 988.21398998 429.54798406 988.21398998 393.8125 990 C388.24031243 992.74991075 383.15880584 995.92617596 378 999.375 C354.26929873 1015.06417733 332.92569136 1014.06829241 305.91601562 1008.59765625 C304.61470703 1008.32953125 303.31339844 1008.06140625 301.97265625 1007.78515625 C286.03976786 1004.50835695 268.59499704 1002.94370782 253 1008.375 C226.23744158 1017.64174701 226.23744158 1017.64174701 214 1012.375 C198.20078011 1001.25703045 192.80568712 982.17534927 187.625 964.4375 C187.21491699 963.03838379 186.80483398 961.63926758 186.38232422 960.19775391 C178.82246247 933.80244332 172.56185922 907.03107405 166 880.375 C163.88152575 871.76920957 161.76034139 863.16412305 159.625 854.5625 C159.38354248 853.5891571 159.14208496 852.61581421 158.89331055 851.61297607 C155.3449854 837.34692466 151.49582378 823.1927705 147.37011719 809.08349609 C145.00654639 800.99014426 142.83578435 792.88714365 140.875 784.6875 C134.89300818 760.30584233 127.53951861 732.47354161 107 716.375 C100.2585762 712.77957397 93.47961824 712.56687798 86 713.375 C78.39365761 715.73558902 72.50617691 718.65223236 67.98828125 725.36328125 C67.43527344 726.46027344 66.88226562 727.55726563 66.3125 728.6875 C65.75175781 729.75613281 65.19101562 730.82476563 64.61328125 731.92578125 C60.51963176 743.21553131 59.47561971 755.51473627 58.3515625 767.41015625 C58.21383423 768.81451431 58.07610596 770.21887238 57.9342041 771.66578674 C57.48823508 776.25549892 57.05510617 780.8462755 56.625 785.4375 C56.47448181 787.02979431 56.32396362 788.62208862 56.16888428 790.26263428 C51.67892679 837.97117392 47.49666036 885.7288452 47.27587891 933.67626953 C46.98807921 987.38692079 46.98807921 987.38692079 29 1005.375 C10.06716012 1020.30794413 -10.17223941 1026.26285255 -34 1024.375 C-39.05021151 1023.34634893 -43.3544377 1021.58274352 -48 1019.375 C-70.47774241 1008.87407732 -92.08305002 1000.02371457 -117 1008.375 C-122.10303461 1010.35232482 -127.16366479 1012.4009369 -132.203125 1014.53515625 C-144.93128708 1019.41704904 -154.45250184 1019.04096337 -167 1014.375 C-173.00273595 1011.48676376 -178.7503884 1008.15375273 -184.5390625 1004.86328125 C-198.93442164 996.86763277 -211.83432297 993.00956898 -228.23828125 997.14453125 C-238.23753007 1000.41531357 -247.67313603 1005.2759264 -257.12109375 1009.859375 C-271.42932783 1016.78161947 -283.42221546 1020.2858294 -299.4140625 1020.68261719 C-301.84930298 1020.74367645 -301.84930298 1020.74367645 -304.33374023 1020.80596924 C-306.95291382 1020.86334259 -306.95291382 1020.86334259 -309.625 1020.921875 C-311.46715088 1020.96350769 -313.30930176 1021.00514038 -315.20727539 1021.04803467 C-334.82751073 1021.46003898 -354.44691314 1021.59566544 -374.07128906 1021.61523438 C-379.09808587 1021.62351439 -384.12446798 1021.64526597 -389.15116882 1021.67320633 C-394.03825921 1021.69627188 -398.92536282 1021.69826566 -403.8125 1021.703125 C-405.597771 1021.7154718 -407.38304199 1021.7278186 -409.22241211 1021.74053955 C-430.33351912 1021.70250014 -430.33351912 1021.70250014 -437.875 1014.6875 C-444.60128191 1007.655478 -447.83517672 1000.25179334 -448.0703125 990.44140625 C-447.69772778 981.48841459 -445.16627869 973.70026512 -442 965.375 C-441.41992188 963.83714844 -440.83984375 962.29929687 -440.2421875 960.71484375 C-435.05702051 947.37405986 -429.15414261 934.40006075 -422.609375 921.67016602 C-418.95962286 914.86523344 -418.95962286 914.86523344 -419 907.375 C-422.24015548 903.75160032 -425.78958838 900.97969496 -429.75 898.1875 C-439.88085947 890.66421396 -446.86978599 882.89585602 -450 870.375 C-450.98063051 859.58806434 -446.38066972 850.04064723 -442 840.4375 C-432.7790667 819.98285504 -431.65639748 803.0169715 -439.3203125 781.703125 C-441.43184379 776.32622018 -443.7130907 771.03245432 -446.0234375 765.73828125 C-453.77192062 747.80731194 -460.28279876 729.41145947 -454.4375 709.75 C-445.74053298 690.57207272 -430.45697766 678.78492561 -411.25 671.125 C-396.23320443 665.867695 -380.57136503 663.51978806 -364.875 661.25 C-363.18246094 660.99863281 -361.48992187 660.74726562 -359.74609375 660.48828125 C-350.66389008 659.15080947 -341.57969399 657.91505774 -332.46044922 656.85791016 C-311.56646569 653.94212778 -293.26867258 641.52639052 -275.2734375 631.24609375 C-259.4840568 622.48714256 -244.55906241 618.34412772 -226.609375 617.38867188 C-203.12690628 615.79016647 -188.94211017 599.84061944 -174 583.375 C-172.68 581.9725 -171.36 580.57 -170 579.125 C-165.36897622 573.33622028 -162.15612165 568.26325055 -161.75 560.75 C-163.35772832 555.12295087 -165.74552585 552.35499195 -170 548.375 C-187.35324652 539.09998893 -212.06992161 544.78231301 -229.97875977 550.05493164 C-232.03115927 550.6865852 -234.08114548 551.32612259 -236.12890625 551.97265625 C-237.24556168 552.32139297 -238.3622171 552.6701297 -239.51271057 553.0294342 C-251.88927797 556.92359131 -264.18750611 561.03781935 -276.4375 565.3125 C-278.18077072 565.91970886 -278.18077072 565.91970886 -279.95925903 566.53918457 C-299.15718998 573.26889451 -317.32712377 581.11251392 -335.38671875 590.52099609 C-344.38851179 595.13988909 -353.34056158 599.55788696 -363.125 602.25 C-364.50945312 602.63929688 -365.89390625 603.02859375 -367.3203125 603.4296875 C-387.33091801 608.5704163 -408.45512196 606.11199426 -426.640625 596.484375 C-436.79735535 590.10689315 -445.83445618 581.08241104 -450.4375 569.875 C-451.16360787 565.35699547 -451 560.94658499 -451 556.375 C-451.47953125 554.74111328 -451.47953125 554.74111328 -451.96875 553.07421875 C-458.31493504 530.30968378 -445.46566387 507.17756648 -436.48828125 486.97265625 C-430.46702016 472.51783073 -427.27692687 456.00158762 -427 440.375 C-426.96132813 439.39789063 -426.92265625 438.42078125 -426.8828125 437.4140625 C-426.12834829 404.80444271 -435.13823066 372.71261207 -443.89453125 341.61328125 C-452.6719108 310.3130372 -457.55960376 278.92543274 -455 246.375 C-454.8585729 244.07833222 -454.72080054 241.78143758 -454.5859375 239.484375 C-452.95811401 212.70480245 -447.26199263 192.40093594 -434.06323242 168.89892578 C-428.84649905 159.51126814 -424.38302858 149.83710526 -422.25 139.25 C-422.02828125 138.19554687 -421.8065625 137.14109375 -421.578125 136.0546875 C-420.13355099 126.86016915 -419.87823687 117.82554585 -419.97265625 108.54296875 C-419.98530314 106.0904962 -419.99766405 103.63802217 -420.00976562 101.18554688 C-420.03451399 97.3745442 -420.06249015 93.56362207 -420.09594727 89.75268555 C-420.30629108 64.12220841 -419.75456424 41.26173495 -401.33984375 21.50390625 C-387.24949631 8.68380716 -367.73184499 3.77638198 -349.0625 4.5 C-324.10590698 6.59982939 -305.58121203 19.90752367 -289.40234375 38.41796875 C-269.96187927 62.34712585 -256.60228307 90.90725671 -242.9765625 118.390625 C-241.02951477 122.31550383 -239.06098731 126.2292653 -237.09179688 130.14306641 C-232.73119378 138.82030267 -228.47196456 147.53703545 -224.3125 156.3125 C-221.34227061 162.576182 -218.31229357 168.78334808 -215 174.875 C-211.82330354 180.7234452 -208.90796612 186.67285088 -206.0625 192.6875 C-186.65562456 234.39370235 -186.65562456 234.39370235 -161 272.375 C-160.13890625 273.50035156 -159.2778125 274.62570312 -158.390625 275.78515625 C-152.67420624 283.24458709 -146.61279512 290.20977097 -140.140625 297.0234375 C-137.90911591 299.40482406 -135.72613344 301.83209394 -133.578125 304.2890625 C-129.97186621 308.40712658 -126.26014948 312.39732122 -122.5 316.375 C-118.70613725 320.38834242 -114.96694519 324.41295835 -111.33984375 328.578125 C-103.75786151 337.19764165 -96.38997781 344.64051979 -84.5625 346 C-77.84869089 345.24563943 -75.0279809 343.87766946 -70 339.375 C-63.78277471 331.01257507 -62.7207979 322.55347878 -64 312.375 C-67.54247303 299.84009544 -74.25632981 289.66319373 -82 279.375 C-84.35704858 276.18957827 -86.71149791 273.00237467 -89.0625 269.8125 C-89.67988037 268.975979 -90.29726074 268.13945801 -90.93334961 267.27758789 C-94.39304745 262.5829811 -97.79841719 257.86111211 -101.1171875 253.06640625 C-107.91493392 243.34929571 -114.91606122 233.77543534 -122.0625 224.3125 C-127.14206997 217.57524599 -132.01684973 210.71352591 -136.859375 203.8046875 C-140.22547707 199.05697637 -143.66249119 194.36499805 -147.125 189.6875 C-152.0640447 183.01517119 -156.92898801 176.29906053 -161.73046875 169.52734375 C-163.80960477 166.63945603 -165.95302188 163.8182541 -168.125 161 C-192.51453733 128.59613868 -214.02367728 93.30538189 -211 51.375 C-210.18449277 46.7247762 -208.94020961 42.67117843 -207 38.375 C-206.34644531 36.91900391 -206.34644531 36.91900391 -205.6796875 35.43359375 C-199.81512392 23.6563964 -191.06329503 17.14237206 -179 12.375 C-163.24239062 7.6957099 -146.11871258 12.39972484 -130.43164062 15.29101562 C-103.66488906 20.00114276 -79.49989578 14.33365973 -53.54882812 7.40234375 C-35.90140886 2.81388972 -18.27587405 -0.21824969 0 0 Z M-177 767.375 C-176 769.375 -176 769.375 -176 769.375 Z " fill="#D02A50" transform="translate(456,-0.375)"/>
<path d="M0 0 C0 0.66 0 1.32 0 2 C-1.546875 2.7425 -1.546875 2.7425 -3.125 3.5 C-11.18584926 8.70054791 -15.37309083 16.95400099 -18 26 C-20.94099181 42.81945772 -22.30073071 59.94639217 -23.875 76.9375 C-24.00184174 78.30172089 -24.12868347 79.66594177 -24.2593689 81.07150269 C-28.53811822 127.38912247 -32.50915656 173.7589744 -32.72387695 220.29907227 C-33.0134282 274.0134282 -33.0134282 274.0134282 -51 292 C-69.93283988 306.93294413 -90.17223941 312.88785255 -114 311 C-119.05021151 309.97134893 -123.3544377 308.20774352 -128 306 C-150.47774241 295.49907732 -172.08305002 286.64871457 -197 295 C-202.10303461 296.97732482 -207.16366479 299.0259369 -212.203125 301.16015625 C-224.93128708 306.04204904 -234.45250184 305.66596337 -247 301 C-253.00273595 298.11176376 -258.7503884 294.77875273 -264.5390625 291.48828125 C-278.93442164 283.49263277 -291.83432297 279.63456898 -308.23828125 283.76953125 C-318.23753007 287.04031357 -327.67313603 291.9009264 -337.12109375 296.484375 C-351.42932783 303.40661947 -363.42221546 306.9108294 -379.4140625 307.30761719 C-381.03755615 307.34832336 -382.6610498 307.38902954 -384.33374023 307.43096924 C-386.95291382 307.48834259 -386.95291382 307.48834259 -389.625 307.546875 C-391.46715088 307.58850769 -393.30930176 307.63014038 -395.20727539 307.67303467 C-414.82751073 308.08503898 -434.44691314 308.22066544 -454.07128906 308.24023438 C-459.09808587 308.24851439 -464.12446798 308.27026597 -469.15116882 308.29820633 C-474.03825921 308.32127188 -478.92536282 308.32326566 -483.8125 308.328125 C-486.49040649 308.3466452 -486.49040649 308.3466452 -489.22241211 308.36553955 C-510.33351912 308.32750014 -510.33351912 308.32750014 -517.875 301.3125 C-524.60128191 294.280478 -527.83517672 286.87679334 -528.0703125 277.06640625 C-527.69772778 268.11341459 -525.16627869 260.32526512 -522 252 C-521.41992188 250.46214844 -520.83984375 248.92429687 -520.2421875 247.33984375 C-515.05702051 233.99905986 -509.15414261 221.02506075 -502.609375 208.29516602 C-498.95962286 201.49023344 -498.95962286 201.49023344 -499 194 C-502.24015548 190.37660032 -505.78958838 187.60469496 -509.75 184.8125 C-519.88085947 177.28921396 -526.86978599 169.52085602 -530 157 C-530.98063051 146.21306434 -526.38066972 136.66564723 -522 127.0625 C-514.42461056 110.11680609 -513.50246583 96.38112346 -514 78 C-503.89862768 87.27281299 -498.57480616 101.79975174 -492.42724609 113.86328125 C-468.94711709 159.90236964 -439.7104849 199.13331039 -388.625 216.3125 C-355.39002028 225.54443881 -327.11982302 220.57675936 -296.01220703 207.64331055 C-265.30711946 194.91282931 -240.99521846 196.7130164 -209.1796875 203.9140625 C-193.28075823 207.24732218 -177.36442451 207.71284765 -163 199 C-147.41364161 186.61631799 -139.94009762 168.3179517 -131.625 150.6875 C-113.97474481 113.30698265 -91.18647623 77.95699679 -65 46 C-64.23042969 45.04738281 -63.46085937 44.09476563 -62.66796875 43.11328125 C-60.46389309 40.39293562 -58.23659967 37.69366024 -56 35 C-54.61361328 33.31583984 -54.61361328 33.31583984 -53.19921875 31.59765625 C-38.59400614 14.15096259 -23.96680871 -0.82644168 0 0 Z " fill="#B12C49" transform="translate(536,713)"/>
<path d="M0 0 C19.6069939 -0.74456939 43.24335837 3.28590652 58.68359375 16.25390625 C84.76055926 41.01346191 84.16909361 86.77569482 85.1237793 120.35351562 C85.20379052 124.79869279 85.23446189 129.24165852 85.25 133.6875 C85.2809375 135.87149414 85.2809375 135.87149414 85.3125 138.09960938 C85.38310975 158.3204754 81.43830448 177.56326215 76.87194824 197.14068604 C67.6564752 236.80919075 59.52442925 273.5346143 76.875 312.17578125 C84.91894174 330.19085911 86.74248477 347.04984872 80 366 C75.14362575 374.94014351 68.49258391 382.17012562 58.5546875 385.3359375 C37.49172624 389.27077642 18.14369203 383.21457777 -1 375 C-34.45201594 359.83898998 -34.45201594 359.83898998 -70.1875 361.625 C-75.75968757 364.37491075 -80.84119416 367.55117596 -86 371 C-109.73070127 386.68917733 -131.07430864 385.69329241 -158.08398438 380.22265625 C-159.38529297 379.95453125 -160.68660156 379.68640625 -162.02734375 379.41015625 C-177.96023214 376.13335695 -195.40500296 374.56870782 -211 380 C-237.76255842 389.26674701 -237.76255842 389.26674701 -250 384 C-265.79921989 372.88203045 -271.19431288 353.80034927 -276.375 336.0625 C-276.78508301 334.66338379 -277.19516602 333.26426758 -277.61767578 331.82275391 C-285.17753753 305.42744332 -291.43814078 278.65607405 -298 252 C-300.11847434 243.39420922 -302.23986045 234.78917336 -304.375 226.1875 C-304.61546051 225.21781281 -304.85592102 224.24812561 -305.10366821 223.24905396 C-308.69867996 208.78898912 -312.57991726 194.4318503 -316.79248047 180.1394043 C-323.56755527 157.13495886 -323.56755527 157.13495886 -323 149 C-322.360625 149.680625 -321.72125 150.36125 -321.0625 151.0625 C-317.93991597 154.22216908 -317.93991597 154.22216908 -313.55859375 157.01171875 C-308.41016881 161.00447053 -306.70089103 165.60349517 -305 171.75 C-304.33776145 173.90771232 -303.67498092 176.06525836 -303.01171875 178.22265625 C-302.68091309 179.33914551 -302.35010742 180.45563477 -302.00927734 181.60595703 C-288.66874509 226.46809526 -268.91904638 274.36580948 -225.9453125 298.25390625 C-203.80281536 309.61815573 -177.86679769 316.16935986 -153.375 308.5 C-140.76615121 303.6312366 -130.38209912 296.63580434 -119.62890625 288.5625 C-108.54336514 280.73460444 -98.4463138 277.86640942 -85 279 C-80.31256669 280.12940685 -75.73213275 281.48665972 -71.11328125 282.8671875 C-64.12295266 284.79234922 -59.28683288 285.06056018 -52.6875 282 C-44.04767169 274.97098713 -42.53598578 266.55299586 -41 256 C-40.855625 254.185 -40.71125 252.37 -40.5625 250.5 C-39.46811317 239.79932882 -37.50160679 230.05728137 -30 222 C-29.34773438 221.29875 -28.69546875 220.5975 -28.0234375 219.875 C-19.66465684 211.60239234 -9.09259143 206.66975619 1.25390625 201.31640625 C23.82317198 189.46994956 38.72625624 169.23956332 46.25 145.125 C46.83881696 143.08490805 47.42292877 141.04344546 48 139 C48.391875 137.783125 48.78375 136.56625 49.1875 135.3125 C51.21535899 127.04507489 51.15737705 118.52909827 51.125 110.0625 C51.12886719 109.05509766 51.13273437 108.04769531 51.13671875 107.00976562 C51.08662607 68.06270464 31.25491336 35.42448707 5 8 C3.60201172 6.68515625 3.60201172 6.68515625 2.17578125 5.34375 C0 3 0 3 0 0 Z " fill="#B12C49" transform="translate(920,628)"/>
<path d="M0 0 C0.99 0.99 0.99 0.99 2 2 C0.88882813 2.556875 -0.22234375 3.11375 -1.3671875 3.6875 C-9.98159042 8.10667377 -17.86667265 12.43014557 -25 19 C-25.90105469 19.80953125 -26.80210938 20.6190625 -27.73046875 21.453125 C-42.70742989 35.58311316 -53.56013175 55.32231137 -54.31640625 76.15625 C-54.58381149 92.33895821 -54.17994278 109.10028609 -51 125 C-50.76756722 131.18505581 -50.81482406 137.37353236 -50.8125 143.5625 C-50.80025391 145.25181641 -50.78800781 146.94113281 -50.77539062 148.68164062 C-50.76479901 157.73747487 -51.2374257 166.12160531 -53 175 C-53.51798407 178.97840546 -53.98104564 182.95948778 -54.4375 186.9453125 C-54.83101786 189.7819204 -55.32981327 192.60499647 -55.90625 195.41015625 C-57.39255663 203.0062448 -58.43232777 210.6479075 -59.5 218.3125 C-59.92641094 221.35035487 -60.35348388 224.38811691 -60.78125 227.42578125 C-61.08748291 229.63164917 -61.08748291 229.63164917 -61.39990234 231.88208008 C-61.76229427 234.36884355 -62.15072915 236.85227641 -62.58837891 239.3269043 C-70.91656274 286.43156022 -57.13179774 329.65170206 -40.1484375 372.78515625 C-27.84615281 404.05016154 -17.31121893 433.95460154 -12.4375 467.3125 C-9.84693645 484.58292369 -4.45613837 502.35736762 9.5625 513.6875 C28.31416456 526.03822042 51.69512395 526.23758835 73.0703125 521.9140625 C78.06502257 520.75227109 83.01725376 519.48594751 87.95703125 518.109375 C94.43003288 516.33320837 100.95244561 514.75702207 107.46875 513.1484375 C110.21101362 512.45341551 112.94436661 511.71951505 115.65625 510.9140625 C131.61829939 506.55060507 148.55492121 507.61989183 162.9375 515.8125 C170.66099033 521.87246933 174.50937894 527.96545138 178 537 C178.3125 541.1875 178.3125 541.1875 178 544 C174 543 174 543 170.0625 541 C151.67260564 531.94651354 125.4375509 539.73572175 106.87109375 545.59765625 C105.75443832 545.94639297 104.6377829 546.2951297 103.48728943 546.6544342 C91.11072203 550.54859131 78.81249389 554.66281935 66.5625 558.9375 C64.81922928 559.54470886 64.81922928 559.54470886 63.04074097 560.16418457 C43.84281002 566.89389451 25.67287623 574.73751392 7.61328125 584.14599609 C-1.38851179 588.76488909 -10.34056158 593.18288696 -20.125 595.875 C-21.50945312 596.26429688 -22.89390625 596.65359375 -24.3203125 597.0546875 C-44.33091801 602.1954163 -65.45512196 599.73699426 -83.640625 590.109375 C-93.79735535 583.73189315 -102.83445618 574.70741104 -107.4375 563.5 C-108.16360787 558.98199547 -108 554.57158499 -108 550 C-108.47953125 548.36611328 -108.47953125 548.36611328 -108.96875 546.69921875 C-115.31493504 523.93468378 -102.46566387 500.80256648 -93.48828125 480.59765625 C-87.46702016 466.14283073 -84.27692687 449.62658762 -84 434 C-83.96132812 433.02289063 -83.92265625 432.04578125 -83.8828125 431.0390625 C-83.12834829 398.42944271 -92.13823066 366.33761207 -100.89453125 335.23828125 C-109.6719108 303.9380372 -114.55960376 272.55043274 -112 240 C-111.8585729 237.70333222 -111.72080054 235.40643758 -111.5859375 233.109375 C-109.95811401 206.32980245 -104.26199263 186.02593594 -91.06323242 162.52392578 C-85.84649905 153.13626814 -81.38302858 143.46210526 -79.25 132.875 C-79.02828125 131.82054687 -78.8065625 130.76609375 -78.578125 129.6796875 C-77.13355099 120.48516915 -76.87823687 111.45054585 -76.97265625 102.16796875 C-76.98530314 99.7154962 -76.99766405 97.26302217 -77.00976562 94.81054688 C-77.03451399 90.9995442 -77.06249015 87.18862207 -77.09594727 83.37768555 C-77.30629108 57.74720841 -76.75456424 34.88673495 -58.33984375 15.12890625 C-44.87909809 2.88165018 -17.83405205 -7.64316517 0 0 Z " fill="#B12D49" transform="translate(113,6)"/>
<path d="M0 0 C1.89818481 0.01305176 1.89818481 0.01305176 3.8347168 0.02636719 C28.85077136 0.41198329 53.03584875 5.42392671 75.75 16 C102.37787796 28.04594479 126.25397936 22.19471523 153.1809082 14.19335938 C168.85804147 9.54761979 187.42798713 5.356628 203 12.375 C215.33185399 19.64107165 221.24649137 29.52972093 225.0859375 43.2578125 C229.33652608 67.05384259 225.3068133 92.68930443 222 116.375 C221.81808105 117.71385254 221.63616211 119.05270508 221.44873047 120.43212891 C216.58111241 155.73214728 209.28079414 191.53261758 198 225.375 C197.34 225.375 196.68 225.375 196 225.375 C193.73495022 216.38153449 193.79190286 207.78590743 193.91015625 198.546875 C193.93059581 195.2161474 193.95076947 191.88541816 193.97070312 188.5546875 C194.01394368 183.35507166 194.06218093 178.15556717 194.11645508 172.95605469 C194.5688995 127.36789648 194.5688995 127.36789648 174.875 87.25 C157.54688758 69.92188758 133.83016801 62.14512626 109.72851562 62.1015625 C108.27123047 62.10929687 106.81394531 62.11703125 105.3125 62.125 C103.87455078 62.11726563 102.43660156 62.10953125 100.95507812 62.1015625 C83.81748044 62.13239938 67.47941043 65.09124298 50.6875 68.3125 C10.93562937 75.90238957 10.93562937 75.90238957 -5.9375 75.6875 C-7.22978516 75.69072266 -8.52207031 75.69394531 -9.85351562 75.69726562 C-32.31101589 75.57231241 -52.46312881 67.85723814 -73 59.375 C-77.31801732 57.66626587 -81.65282663 56.00794837 -86 54.375 C-87.74023438 53.70984375 -87.74023438 53.70984375 -89.515625 53.03125 C-102.85006679 48.06691236 -118.54591072 44.06529925 -132.578125 48.5078125 C-144.23859103 54.10366429 -151.7100897 62.19780342 -156.07861328 74.38378906 C-158.8222507 83.07502677 -159.63713357 91.0424026 -159.5 100.125 C-159.48573975 101.44048828 -159.47147949 102.75597656 -159.45678711 104.11132812 C-158.75138943 136.76460897 -142.75229715 166.13864983 -123 191.375 C-92.76385224 231.2468432 -92.76385224 231.2468432 -95 254.375 C-95.33 255.365 -95.66 256.355 -96 257.375 C-100.09411186 256.01029605 -100.70178497 254.01110449 -103 250.375 C-109.2327637 241.59719113 -115.57450898 232.90331814 -122.0625 224.3125 C-127.14206997 217.57524599 -132.01684973 210.71352591 -136.859375 203.8046875 C-140.22547707 199.05697637 -143.66249119 194.36499805 -147.125 189.6875 C-152.0640447 183.01517119 -156.92898801 176.29906053 -161.73046875 169.52734375 C-163.80960477 166.63945603 -165.95302188 163.8182541 -168.125 161 C-192.51453733 128.59613868 -214.02367728 93.30538189 -211 51.375 C-210.18449277 46.7247762 -208.94020961 42.67117843 -207 38.375 C-206.56429687 37.40433594 -206.12859375 36.43367188 -205.6796875 35.43359375 C-199.81512392 23.6563964 -191.06329503 17.14237206 -179 12.375 C-163.24239062 7.6957099 -146.11871258 12.39972484 -130.43164062 15.29101562 C-103.66488906 20.00114276 -79.49989578 14.33365973 -53.54882812 7.40234375 C-35.90140886 2.81388972 -18.27587405 -0.21824969 0 0 Z " fill="#B12D49" transform="translate(456,-0.375)"/>
<path d="M0 0 C10.4847453 9.08677926 15.10460971 18.5351003 16.75 32.25 C17.01351314 38.22758764 17.01983508 44.20483395 17.0625 50.1875 C17.33037467 67.03272531 18.44560181 83.67610502 20.0625 100.4375 C20.16341949 101.51562958 20.26433899 102.59375916 20.36831665 103.70455933 C21.6050567 116.77127945 23.3549001 129.56769233 25.8840332 142.45532227 C29.50380059 162.49722013 26.09995418 181.62719003 22.1875 201.375 C21.55896873 204.58550189 20.93258844 207.7964258 20.30859375 211.0078125 C19.89565063 213.09826904 19.89565063 213.09826904 19.47436523 215.23095703 C18.13189771 222.67945733 17.63545398 229.79618546 17.68261719 237.36962891 C17.69176147 239.31508606 17.70090576 241.26054321 17.71032715 243.26495361 C17.72341919 245.24001892 17.73651123 247.21508423 17.75 249.25 C17.76009892 252.86246567 17.7695487 256.47493321 17.77832031 260.08740234 C17.81327622 269.04933423 17.86722322 278.01103986 17.93390274 286.97278404 C17.97339246 292.3350592 18.00561703 297.69716737 18.02099609 303.05957031 C17.84232681 335.89125662 17.84232681 335.89125662 22.75 368.25 C23.1001416 369.74370117 23.4502832 371.23740234 23.81103516 372.77636719 C24.7826884 376.68750998 25.83454139 380.5616248 26.9375 384.4375 C27.64042073 386.97235208 28.34229012 389.507496 29.04296875 392.04296875 C29.3474292 393.1208667 29.65188965 394.19876465 29.96557617 395.30932617 C33.46777281 408.43847603 34.42002181 427.04742705 28.3515625 439.57421875 C27.82304688 440.45722656 27.29453125 441.34023438 26.75 442.25 C25.89535156 443.68279297 25.89535156 443.68279297 25.0234375 445.14453125 C14.70206937 460.66905821 -2.14478351 469.61281385 -20.05859375 473.5703125 C-54.42120214 479.14262737 -87.78706582 470.1032262 -119.875 458.5 C-143.03362007 450.67471285 -168.16851273 451.14937842 -192.3125 450.6875 C-194.45117793 450.64417802 -196.58984988 450.60056009 -198.72851562 450.55664062 C-203.90227954 450.45102436 -209.07611211 450.34938108 -214.25 450.25 C-214.25 449.59 -214.25 448.93 -214.25 448.25 C-215.9 447.59 -217.55 446.93 -219.25 446.25 C-221.27318078 444.95211044 -223.27866014 443.62535339 -225.25 442.25 C-221.70587237 439.88724825 -219.61587475 439.77461115 -215.39453125 439.35546875 C-213.20244019 439.13310547 -213.20244019 439.13310547 -210.96606445 438.90625 C-209.34788818 438.7515625 -207.72971191 438.596875 -206.0625 438.4375 C-204.36246826 438.26863281 -202.66243652 438.09976562 -200.91088867 437.92578125 C-184.42557851 436.31139509 -167.92368197 434.88061662 -151.42333984 433.43008423 C-132.52686906 431.76532093 -113.65691372 429.96090102 -94.82275391 427.68212891 C-92.52377393 427.4040645 -90.22400778 427.13238663 -87.92333984 426.86865234 C-72.11507947 425.04797512 -56.58407712 422.19497701 -45.8046875 409.33203125 C-38.20016787 398.82875908 -33.85593759 387.88804414 -31.25 375.25 C-30.91492432 373.62835938 -30.57984863 372.00671875 -30.23461914 370.3359375 C-26.26379726 348.190825 -30.37139187 325.55438986 -34.125 303.6875 C-35.04763629 298.16677063 -35.95894575 292.64420791 -36.8671875 287.12109375 C-37.08366943 285.8103186 -37.30015137 284.49954346 -37.52319336 283.14904785 C-39.84169452 268.93702503 -41.61309027 254.79400887 -41.5 240.375 C-41.50773438 239.39660156 -41.51546875 238.41820312 -41.5234375 237.41015625 C-41.47842656 219.60832847 -38.76868076 202.01113446 -35.8125 184.5 C-35.36293945 181.77943359 -35.36293945 181.77943359 -34.90429688 179.00390625 C-30.43966544 152.09990166 -30.43966544 152.09990166 -28.1640625 140.91015625 C-22.6087341 112.5874777 -21.13611874 81.35461611 -28.25 53.25 C-28.52714844 52.06277344 -28.80429687 50.87554687 -29.08984375 49.65234375 C-33.41986078 31.97918412 -41.57415991 15.92928012 -52.25 1.25 C-52.25 0.59 -52.25 -0.07 -52.25 -0.75 C-34.53902745 -8.66784655 -16.95067061 -10.96808098 0 0 Z " fill="#B12D49" transform="translate(982.25,105.75)"/>
<path d="M0 0 C6.01870834 4.44458462 11.73910494 9.35371745 13.0625 17 C13.72300485 27.23782513 12.6597398 33.86983578 5.6875 41.875 C-1.49328283 48.06533002 -6.69555008 48.31448787 -15.9375 49 C-16.48535156 50.49660156 -17.03320312 51.99320313 -17.59765625 53.53515625 C-28.76656188 83.93056955 -40.29584188 114.18381831 -52.9375 144 C-53.35273926 144.98742187 -53.76797852 145.97484375 -54.19580078 146.9921875 C-73.53790145 192.90926123 -98.42005875 235.62466266 -125.13671875 277.59765625 C-127.00563845 280.53527481 -128.86241817 283.48065179 -130.70703125 286.43359375 C-155.17125713 325.55627509 -155.17125713 325.55627509 -166.5078125 338.25390625 C-169.09298955 341.17573819 -171.45450998 344.2049253 -173.8125 347.3125 C-179.6740525 355.0221216 -185.81436431 362.4977797 -191.9375 370 C-196.22808427 375.29444714 -200.43304278 380.6413325 -204.5625 386.0625 C-209.72112611 392.80045933 -215.12948059 399.31784006 -220.54296875 405.8515625 C-224.35032535 410.50451153 -228.01434578 415.24956217 -231.65234375 420.03515625 C-233.81786629 422.84478293 -236.04612869 425.5839349 -238.3125 428.3125 C-243.1183687 434.13057822 -247.59978986 440.17671888 -252.09765625 446.234375 C-254.3112468 449.16958998 -256.57328333 452.0009991 -258.9375 454.8125 C-268.36598475 466.54442409 -275.43977761 479.66652981 -281.9987793 493.13305664 C-292.62420965 514.79354933 -307.61147026 535.14954141 -331.1875 543.5 C-342.98970224 546.70059722 -354.93641346 546.36302969 -365.9375 541 C-375.77246237 534.40022262 -382.56895234 526.45306204 -385.9375 515 C-387.22446668 504.44930149 -385.46796841 497.19100026 -379.09375 488.48046875 C-373.1329241 481.2407343 -365.89928842 476.79260825 -357.9375 472 C-354.78745572 470.02754237 -351.64183035 468.04801507 -348.5 466.0625 C-346.88351562 465.0415625 -345.26703125 464.020625 -343.6015625 462.96875 C-319.10537601 447.37653749 -295.78071047 430.14155023 -273.9375 411 C-272.57625 409.824375 -271.215 408.64875 -269.8125 407.4375 C-265.51394215 403.6242632 -261.28295177 399.74308044 -257.0625 395.84375 C-254.77016661 393.75772661 -252.44330051 391.70948589 -250.09765625 389.68359375 C-245.70037056 385.79003468 -241.51471753 381.72469564 -237.375 377.5625 C-236.65892578 376.85029297 -235.94285156 376.13808594 -235.20507812 375.40429688 C-230.57582194 370.76661621 -226.22415786 365.95347131 -221.9375 361 C-219.98674565 358.88880502 -218.02873519 356.78428468 -216.0625 354.6875 C-211.56671793 349.83384473 -207.27694709 344.88512349 -203.13671875 339.7265625 C-200.84308338 336.88294351 -198.48732764 334.09922036 -196.125 331.3125 C-182.35104364 314.79650603 -169.54550862 297.10368183 -157.9375 279 C-157.42525879 278.20480957 -156.91301758 277.40961914 -156.38525391 276.59033203 C-141.67216825 253.67258598 -128.770843 229.88973967 -116.36328125 205.66015625 C-113.57526598 200.21805453 -110.70874324 194.8229216 -107.8125 189.4375 C-103.14982133 180.62248561 -98.98530683 171.60414786 -94.828125 162.54370117 C-91.45449958 155.20755425 -87.96817388 147.94949309 -84.3125 140.75 C-80.43771625 133.09631507 -76.78291549 125.37932719 -73.25 117.5625 C-69.70501423 109.72225706 -65.95813628 102.086215 -61.81640625 94.5390625 C-59.79386982 90.72946166 -57.98528859 86.85793426 -56.1875 82.9375 C-52.99671169 76.05873941 -49.51926352 69.39485759 -45.875 62.75 C-45.36356445 61.81067627 -44.85212891 60.87135254 -44.32519531 59.90356445 C-42.12173348 55.87795462 -39.8770127 51.90164823 -37.47265625 47.9921875 C-34.85104014 43.6587716 -34.85104014 43.6587716 -32.9375 39 C-34.17110826 34.36030318 -34.17110826 34.36030318 -36.9375 31 C-39.00612959 24.79411123 -38.39425799 19.25608447 -36.1875 13.1875 C-28.69075739 -0.76477097 -14.86339496 -6.02061568 0 0 Z " fill="#E48C29" transform="translate(846.9375,10)"/>
<path d="M0 0 C6.78636168 4.52424112 10.21827641 10.53110158 12 18.4375 C12 26.00869086 10.27448739 31.21571765 5.875 37.375 C0.07290329 42.80276789 -4.54725896 44.74626817 -12.4375 45.5625 C-20.39133844 44.75817926 -25.63688317 42.23421955 -31.4375 36.75 C-35.45743988 30.86716115 -37 26.13901854 -37 19 C-35.48013842 11.4006921 -32.912749 6.66986024 -27.0625 1.5625 C-18.08118407 -4.10263774 -9.74224723 -4.63156016 0 0 Z " fill="#EA932A" transform="translate(774,28)"/>
<path d="M0 0 C6.85321425 3.87355588 10.97695002 8.91183895 13.3125 16.4375 C14.03180279 25.06913345 12.26654308 29.83210923 7.125 36.6875 C1.93655378 41.79088972 -1.9632383 43.16891082 -9.125 43.875 C-16.65117867 43.15331163 -21.19982596 40.8779463 -26.625 35.625 C-30.84179723 29.85917521 -31.74246658 26.60868004 -31.5625 19.5 C-30.41891797 12.88356113 -28.65046386 8.40046386 -23.875 3.625 C-15.90680493 -1.84336916 -9.3115632 -3.1038544 0 0 Z " fill="#EA922A" transform="translate(742.6875,97.5625)"/>
<path d="M0 0 C5.70981566 3.67750839 8.17424278 7.09185694 10.6875 13.375 C11.28605747 20.2584109 10.41690509 24.54182793 6.6875 30.375 C1.54240261 35.52009739 -2.42963079 37.85230607 -9.5625 38.8125 C-15.89418997 38.07380284 -21.30367476 35.38382524 -25.8125 30.875 C-29.4001945 24.89550917 -29.80656092 20.20950933 -29.3125 13.375 C-27.08066945 7.45206508 -24.50790474 3.97997472 -19.3125 0.375 C-12.40408465 -2.38836614 -7.01101065 -2.6418301 0 0 Z " fill="#EA932B" transform="translate(721.3125,161.625)"/>
<path d="M0 0 C5.61180071 2.76523513 9.35887861 5.92449746 13 11 C14.87292666 16.61877998 14.74050246 22.6913747 12.9375 28.3125 C9.44806937 33.15267797 5.30510275 36.34744862 0 39 C-7.19514082 39.56803743 -11.98884801 39.10762052 -18 35 C-22.82125407 29.12683595 -25.10768668 24.64575457 -25 17 C-23.01931429 9.9112301 -20.58511427 5.64912462 -14.375 1.6875 C-9.1264066 -0.33695745 -5.58916535 -0.6287811 0 0 Z " fill="#EA932B" transform="translate(846,116)"/>
<path d="M0 0 C4.63641852 3.37194074 8.91376765 7.49130296 10.75 13 C11.33018341 21.02587052 10.94722144 25.7200241 5.75 32 C0.5131267 36.03496795 -3.60707107 38 -10.25 38 C-17.52008716 36.40655624 -21.54622181 33.7597284 -26.25 28 C-28.86647566 22.22194958 -28.34402397 17.17342099 -27.25 11 C-21.66079555 0.02859868 -11.80685063 -3.63287712 0 0 Z " fill="#EA932A" transform="translate(871.25,67)"/>
<path d="M0 0 C3.8058099 2.59487038 6.68105408 5.73710816 8.75 9.875 C9.33395596 19.68546009 9.33395596 19.68546009 7.0625 24.3125 C2.53207248 29.33270347 -0.65748535 31.68437392 -7.5 32.1875 C-13.79944382 31.77306291 -17.30179678 29.92574023 -21.625 25.375 C-24.44543065 21.03587593 -24.59157224 16.91319055 -24.25 11.875 C-22.48132616 6.17593984 -20.10305993 3.31258412 -15.25 -0.125 C-10.10304238 -1.84065254 -5.1226119 -1.77321181 0 0 Z " fill="#EA942C" transform="translate(811.25,176.125)"/>
<path d="M0 0 C4.36872308 2.18436154 7.48211211 4.80352018 10 9 C11.21905136 14.257159 11.28415599 17.21572946 9.4375 22.3125 C5.96128297 27.57139243 3.17635676 29.48181982 -2.9375 30.9375 C-8.91939475 31.02952915 -12.39527951 29.39540913 -16.875 25.5 C-20.91424829 20.74794318 -20.3639452 16.04149024 -20 10 C-15.7131784 1.09660129 -9.54562678 -0.95456268 0 0 Z " fill="#EA932C" transform="translate(700,215)"/>
<path d="M0 0 C4.97259531 2.44109224 6.05287046 4.08811743 9 9 C10.68865025 14.42780439 9.47583832 17.96845761 7 23 C3.6402515 26.75971856 1.54425062 27.86782485 -3.375 29.0625 C-8.84540853 28.98857556 -11.51275581 28.11825444 -16 25 C-19.11825444 20.51275581 -19.98857556 17.84540853 -20.0625 12.375 C-18.89346463 7.56132496 -17.5573577 5.3918992 -14 2 C-8.94908464 -0.52545768 -5.60254087 -0.40994201 0 0 Z " fill="#EA932D" transform="translate(674,266)"/>
<path d="M0 0 C6.41843972 3.85106383 6.41843972 3.85106383 9 8 C10.01923022 12.28076694 10.33478086 14.99565741 8.9375 19.1875 C5.84097454 23.68245631 2.87726048 26.40901059 -2.375 28.0625 C-7.22113158 27.97894601 -9.93439383 26.59932198 -14 24 C-17.34877868 20.40006292 -17.95321149 18.42109661 -18.5 13.5 C-17.96256189 8.66305705 -17.18516433 6.61559195 -14 3 C-8.48615699 -0.3083058 -6.2657044 -0.52214203 0 0 Z " fill="#EA932C" transform="translate(776,230)"/>
<path d="M0 0 C3.4127031 3.1689386 5.50600116 5.60517974 7.0625 10 C6.94825878 15.48357859 5.01336516 18.91593494 1.3125 22.875 C-2.68501818 25.43944563 -5.26306357 26 -10 26 C-14.59591308 24.32072407 -16.43677522 22.56322478 -20 19 C-21.29802389 15.10592832 -21.30559343 12.09495193 -21 8 C-18.74616285 3.73380826 -16.91627874 1.93720905 -13 -1 C-7.8725472 -2.2818632 -5.01760294 -1.62733068 0 0 Z " fill="#EA932D" transform="translate(649,309)"/>
<path d="M0 0 C0.66 0.33 1.32 0.66 2 1 C1.67 1.66 1.34 2.32 1 3 C2.98 3.33 4.96 3.66 7 4 C7 4.33 7 4.66 7 5 C6.08710205 5.176521 5.1742041 5.35304199 4.23364258 5.53491211 C0.09323009 6.33561128 -4.04713545 7.13655298 -8.1875 7.9375 C-9.62416016 8.21529297 -11.06082031 8.49308594 -12.54101562 8.77929688 C-13.92353516 9.04677734 -15.30605469 9.31425781 -16.73046875 9.58984375 C-18.00301514 9.83597412 -19.27556152 10.08210449 -20.58666992 10.33569336 C-23.39280759 10.88182744 -26.19672735 11.43934547 -29 12 C-29.33 11.34 -29.66 10.68 -30 10 C-28.5046875 9.52949219 -27.009375 9.05898438 -25.46875 8.57421875 C-23.47913137 7.94542418 -21.48955001 7.31651167 -19.5 6.6875 C-18.51773438 6.37876953 -17.53546875 6.07003906 -16.5234375 5.75195312 C-12.09599741 4.34993043 -7.73354982 2.89600287 -3.40625 1.20703125 C-1.72015625 0.60955078 -1.72015625 0.60955078 0 0 Z " fill="#D44760" transform="translate(713,443)"/>
<path d="M0 0 C0.99 0.33 1.98 0.66 3 1 C1.23001191 2.93827219 -0.54102064 4.87559066 -2.3125 6.8125 C-3.29863281 7.89144531 -4.28476562 8.97039063 -5.30078125 10.08203125 C-7.16049807 12.09246318 -9.06345886 14.06345886 -11 16 C-11.66 15.34 -12.32 14.68 -13 14 C-13.99 14 -14.98 14 -16 14 C-14.64455078 12.86111328 -14.64455078 12.86111328 -13.26171875 11.69921875 C-12.08222656 10.70535156 -10.90273438 9.71148438 -9.6875 8.6875 C-7.92986328 7.20830078 -7.92986328 7.20830078 -6.13671875 5.69921875 C-2.95171351 3.02647027 -2.95171351 3.02647027 0 0 Z " fill="#D85D6E" transform="translate(370,588)"/>
<path d="M0 0 C-2 5 -2 5 -4 8 C-5.65 8.33 -7.3 8.66 -9 9 C-11.59560877 10.79658024 -11.59560877 10.79658024 -14.0625 13 C-17.30347034 15.79652294 -18.75681866 16.93920466 -23 18 C-19.66158302 14.57086517 -16.2225225 11.44375061 -12.5 8.4375 C-11.5821875 7.69371094 -10.664375 6.94992187 -9.71875 6.18359375 C-8.8215625 5.46300781 -7.924375 4.74242187 -7 4 C-6.1028125 3.24847656 -5.205625 2.49695313 -4.28125 1.72265625 C-2 0 -2 0 0 0 Z " fill="#D75569" transform="translate(402,621)"/>
<path d="M0 0 C0.66 0 1.32 0 2 0 C0.68 6.6 -0.64 13.2 -2 20 C-2.33 20 -2.66 20 -3 20 C-3.33 17.69 -3.66 15.38 -4 13 C-4.99 13 -5.98 13 -7 13 C-5.08208008 8.20520019 -2.89088348 4.26405314 0 0 Z " fill="#DA6775" transform="translate(434,647)"/>
<path d="M0 0 C0.33 0.99 0.66 1.98 1 3 C0.01 4.485 0.01 4.485 -1 6 C2.96 6.33 6.92 6.66 11 7 C10.67 7.66 10.34 8.32 10 9 C4.72 9 -0.56 9 -6 9 C-6 7 -6 7 -3.5625 4.5 C-2.716875 3.675 -1.87125 2.85 -1 2 C-0.67 1.34 -0.34 0.68 0 0 Z " fill="#DF7B89" transform="translate(653,417)"/>
<path d="M0 0 C3.1763001 3.88214457 6.10773369 7.90262272 9 12 C8.67 12.66 8.34 13.32 8 14 C5.03 12.02 2.06 10.04 -1 8 C-0.34 7.67 0.32 7.34 1 7 C0.67 4.69 0.34 2.38 0 0 Z " fill="#D7566A" transform="translate(430,447)"/>
<path d="M0 0 C5.61 0 11.22 0 17 0 C16.67 0.99 16.34 1.98 16 3 C4.5 3.125 4.5 3.125 0 2 C0 1.34 0 0.68 0 0 Z " fill="#D23D59" transform="translate(698,472)"/>
<path d="M0 0 C5.94 2.475 5.94 2.475 12 5 C12 5.66 12 6.32 12 7 C2.5 5.25 2.5 5.25 -2 3 C-1.34 2.67 -0.68 2.34 0 2 C0 1.34 0 0.68 0 0 Z " fill="#D65264" transform="translate(360,443)"/>
<path d="M0 0 C2.31 0.66 4.62 1.32 7 2 C6.34 3.32 5.68 4.64 5 6 C5.66 6 6.32 6 7 6 C7.99 7.485 7.99 7.485 9 9 C8.67 9.99 8.34 10.98 8 12 C6.66081194 10.37982158 5.3288031 8.75370657 4 7.125 C3.2575 6.22007812 2.515 5.31515625 1.75 4.3828125 C0 2 0 2 0 0 Z " fill="#D75469" transform="translate(610,580)"/>
<path d="M0 0 C0.66 0.33 1.32 0.66 2 1 C-0.24609375 2.92057292 -2.4921875 4.84114583 -4.73828125 6.76171875 C-7.41789771 9.22883545 -7.41789771 9.22883545 -10 14 C-10.99 14.33 -11.98 14.66 -13 15 C-10.34166699 8.35416746 -5.95110794 3.96740529 0 0 Z " fill="#BA4C5D" transform="translate(266,17)"/>
<path d="M0 0 C0 0.66 0 1.32 0 2 C-6.93 3.485 -6.93 3.485 -14 5 C-14.33 4.34 -14.66 3.68 -15 3 C-12.87790224 2.30359327 -10.75221473 1.61811643 -8.625 0.9375 C-6.84996094 0.36322266 -6.84996094 0.36322266 -5.0390625 -0.22265625 C-2 -1 -2 -1 0 0 Z " fill="#DC7479" transform="translate(698,450)"/>
<path d="M0 0 C0.99 0.33 1.98 0.66 3 1 C0.36 3.64 -2.28 6.28 -5 9 C-5.99 8.67 -6.98 8.34 -8 8 C-5.47873082 4.66832287 -3.40675575 2.55506681 0 0 Z " fill="#ECA04E" transform="translate(749,28)"/>
<path d="M0 0 C0 3 0 3 -1.96875 5.26171875 C-2.8040625 6.06222656 -3.639375 6.86273438 -4.5 7.6875 C-5.3353125 8.49574219 -6.170625 9.30398438 -7.03125 10.13671875 C-8.00578125 11.05904297 -8.00578125 11.05904297 -9 12 C-9.99 11.67 -10.98 11.34 -12 11 C-8.04 7.37 -4.08 3.74 0 0 Z " fill="#DA5F73" transform="translate(787,394)"/>
<path d="M0 0 C-4 3 -4 3 -9 3 C-9.99 3.33 -10.98 3.66 -12 4 C-13.32 3.34 -14.64 2.68 -16 2 C-10.56676446 0.95262929 -5.54341586 0 0 0 Z " fill="#D65366" transform="translate(775,462)"/>
<path d="M0 0 C0.66 0.33 1.32 0.66 2 1 C-1.3 3.97 -4.6 6.94 -8 10 C-8.66 9.67 -9.32 9.34 -10 9 C-3.375 2.25 -3.375 2.25 0 0 Z " fill="#D54860" transform="translate(26,680)"/>
<path d="M0 0 C4 1 4 1 8 3 C1.25 4.125 1.25 4.125 -1 3 C-0.67 2.01 -0.34 1.02 0 0 Z " fill="#CF284F" transform="translate(715,443)"/>
<path d="M0 0 C0.66 1.32 1.32 2.64 2 4 C0 9 0 9 -3 13 C-1.125 3.375 -1.125 3.375 0 0 Z " fill="#D85B6D" transform="translate(427,760)"/>
<path d="M0 0 C0 3.63 0 7.26 0 11 C-0.33 11 -0.66 11 -1 11 C-1.33 8.69 -1.66 6.38 -2 4 C-2.99 4 -3.98 4 -5 4 C-4.67 3.01 -4.34 2.02 -4 1 C-1 0 -1 0 0 0 Z " fill="#D75169" transform="translate(432,656)"/>
<path d="M0 0 C0.66 0 1.32 0 2 0 C-0.0042017 4.0084034 -1.49055963 5.41409657 -5 8 C-4 4 -4 4 0 0 Z " fill="#D54661" transform="translate(300,613)"/>
<path d="M0 0 C4.6875 0.3125 4.6875 0.3125 9 1 C9 1.33 9 1.66 9 2 C3.06 2.495 3.06 2.495 -3 3 C-2.01 2.01 -1.02 1.02 0 0 Z " fill="#D65163" transform="translate(700,448)"/>
<path d="M0 0 C1.65 0.33 3.3 0.66 5 1 C5 1.33 5 1.66 5 2 C1.37 2 -2.26 2 -6 2 C-6 1.34 -6 0.68 -6 0 C-4 -1 -4 -1 0 0 Z " fill="#D4465D" transform="translate(709,447)"/>
<path d="M0 0 C-5.21520511 2.60760255 -7.20475357 3.15904929 -13 2 C-13 1.67 -13 1.34 -13 1 C-8.60563789 0.14256349 -4.47427924 -0.08948558 0 0 Z " fill="#DA6373" transform="translate(118,658)"/>
<path d="M0 0 C0.66 0.33 1.32 0.66 2 1 C0.05454651 3.7067179 -1.94785319 6.37325209 -4 9 C-4.66 9 -5.32 9 -6 9 C-4 4 -4 4 0 0 Z " fill="#EEA75B" transform="translate(720,100)"/>
<path d="M0 0 C0.33 0.99 0.66 1.98 1 3 C1.66 3 2.32 3 3 3 C1 7 1 7 -2 9 C-1.34 6.03 -0.68 3.06 0 0 Z " fill="#D96371" transform="translate(554,406)"/>
</svg>
